<mxfile host="65bd71144e">
    <diagram id="BWofAGGZ1-RLSubgRVk1" name="Page-1">
        <mxGraphModel dx="1225" dy="472" grid="1" gridSize="10" guides="1" tooltips="1" connect="1" arrows="1" fold="1" page="1" pageScale="1" pageWidth="850" pageHeight="1100" math="0" shadow="0">
            <root>
                <mxCell id="0"/>
                <mxCell id="1" parent="0"/>
                <mxCell id="2" value="Javascript is single-threaded" style="text;html=1;strokeColor=none;fillColor=none;align=center;verticalAlign=middle;whiteSpace=wrap;rounded=0;" vertex="1" parent="1">
                    <mxGeometry x="110" y="30" width="150" height="30" as="geometry"/>
                </mxCell>
                <mxCell id="3" value="" style="rounded=0;whiteSpace=wrap;html=1;" vertex="1" parent="1">
                    <mxGeometry x="125" y="80" width="175" height="270" as="geometry"/>
                </mxCell>
                <mxCell id="4" value="Async - Anything returns a promise" style="rounded=0;whiteSpace=wrap;html=1;" vertex="1" parent="1">
                    <mxGeometry x="910" y="100" width="120" height="60" as="geometry"/>
                </mxCell>
                <mxCell id="6" value="sync - Anything returns value directly is sync" style="rounded=0;whiteSpace=wrap;html=1;" vertex="1" parent="1">
                    <mxGeometry x="910" y="220" width="120" height="60" as="geometry"/>
                </mxCell>
                <mxCell id="7" value="function(){&lt;br&gt;console.log()&lt;br&gt;}" style="text;html=1;strokeColor=none;fillColor=none;align=center;verticalAlign=middle;whiteSpace=wrap;rounded=0;" vertex="1" parent="1">
                    <mxGeometry x="1080" y="340" width="90" height="70" as="geometry"/>
                </mxCell>
                <mxCell id="8" value="function(){&lt;br&gt;document.getElementById()&lt;br&gt;}" style="text;html=1;strokeColor=none;fillColor=none;align=center;verticalAlign=middle;whiteSpace=wrap;rounded=0;" vertex="1" parent="1">
                    <mxGeometry x="1040" y="210" width="190" height="30" as="geometry"/>
                </mxCell>
                <mxCell id="10" value="function(){&lt;br&gt;while(true){}&lt;br&gt;}&lt;br&gt;" style="text;html=1;strokeColor=none;fillColor=none;align=center;verticalAlign=middle;whiteSpace=wrap;rounded=0;" vertex="1" parent="1">
                    <mxGeometry x="1100" y="280" width="90" height="30" as="geometry"/>
                </mxCell>
                <mxCell id="12" value="function(){&lt;br&gt;document.getElementById()&lt;br&gt;console.log('123')&lt;br&gt;}" style="text;html=1;strokeColor=none;fillColor=none;align=center;verticalAlign=middle;whiteSpace=wrap;rounded=0;" vertex="1" parent="1">
                    <mxGeometry x="130" y="105" width="190" height="30" as="geometry"/>
                </mxCell>
                <mxCell id="13" value="function(){&lt;br&gt;res = await fetch('www.aspentech.com')&lt;br&gt;console.log('456')&lt;br&gt;}" style="text;html=1;strokeColor=none;fillColor=none;align=center;verticalAlign=middle;whiteSpace=wrap;rounded=0;" vertex="1" parent="1">
                    <mxGeometry x="167.5" y="240" width="90" height="70" as="geometry"/>
                </mxCell>
                <mxCell id="14" value="function(){&lt;br&gt;for(let i=0;i&amp;lt;1000;i++){}" style="text;html=1;strokeColor=none;fillColor=none;align=center;verticalAlign=middle;whiteSpace=wrap;rounded=0;" vertex="1" parent="1">
                    <mxGeometry x="170" y="320" width="90" height="30" as="geometry"/>
                </mxCell>
                <mxCell id="15" value="function(){&lt;br&gt;res = await fetch()&lt;br&gt;console.log(res.body)&lt;br&gt;}" style="text;html=1;strokeColor=none;fillColor=none;align=center;verticalAlign=middle;whiteSpace=wrap;rounded=0;" vertex="1" parent="1">
                    <mxGeometry x="1050" y="100" width="190" height="60" as="geometry"/>
                </mxCell>
                <mxCell id="16" value="function(){&lt;br&gt;res = fetch('www.google.com')&lt;br&gt;console.log(res.body)&lt;br&gt;}" style="text;html=1;strokeColor=none;fillColor=none;align=center;verticalAlign=middle;whiteSpace=wrap;rounded=0;" vertex="1" parent="1">
                    <mxGeometry x="120" y="165" width="190" height="60" as="geometry"/>
                </mxCell>
                <mxCell id="21" value="fetch - async&lt;br&gt;1. send request - sync&lt;br&gt;2. check if response is received - sync&lt;br&gt;3. if not, wait for a timeout and go back to step 2 - async&lt;br&gt;4. return response value - sync" style="text;html=1;strokeColor=none;fillColor=none;align=center;verticalAlign=middle;whiteSpace=wrap;rounded=0;" vertex="1" parent="1">
                    <mxGeometry x="630" y="105" width="270" height="190" as="geometry"/>
                </mxCell>
                <mxCell id="22" value="command queue" style="text;html=1;strokeColor=none;fillColor=none;align=center;verticalAlign=middle;whiteSpace=wrap;rounded=0;" vertex="1" parent="1">
                    <mxGeometry x="357.5" y="50" width="150" height="30" as="geometry"/>
                </mxCell>
                <mxCell id="23" value="async-queue" style="text;html=1;strokeColor=none;fillColor=none;align=center;verticalAlign=middle;whiteSpace=wrap;rounded=0;" vertex="1" parent="1">
                    <mxGeometry x="520" y="50" width="150" height="30" as="geometry"/>
                </mxCell>
                <mxCell id="24" value="fetch(google)-3&lt;br&gt;" style="text;html=1;strokeColor=none;fillColor=none;align=center;verticalAlign=middle;whiteSpace=wrap;rounded=0;" vertex="1" parent="1">
                    <mxGeometry x="510" y="100" width="140" height="190" as="geometry"/>
                </mxCell>
                <mxCell id="25" value="getelementbyId()&lt;br&gt;console.log('123')&lt;br&gt;fetch-1&lt;br&gt;fetch-2&lt;br&gt;fetch-3-incomplete&lt;br&gt;console.log()&lt;br&gt;fetch-3-incomplete" style="rounded=0;whiteSpace=wrap;html=1;" vertex="1" parent="1">
                    <mxGeometry x="345" y="90" width="175" height="300" as="geometry"/>
                </mxCell>
            </root>
        </mxGraphModel>
    </diagram>
</mxfile>